<?xml version="1.0" standalone="no"?>
<!DOCTYPE svg PUBLIC "-//W3C//DTD SVG 20010904//EN"
 "http://www.w3.org/TR/2001/REC-SVG-20010904/DTD/svg10.dtd">
<svg version="1.0" xmlns="http://www.w3.org/2000/svg"
 width="696.000000pt" height="696.000000pt" viewBox="0 0 696.000000 696.000000"
 preserveAspectRatio="xMidYMid meet">
<metadata>
Created by potrace 1.14, written by Peter Selinger 2001-2017
</metadata>
<g transform="translate(0.000000,696.000000) scale(0.100000,-0.100000)"
fill="#000000" stroke="none">
<path d="M1650 4919 c-124 -21 -155 -27 -155 -29 0 -1 -7 -3 -15 -5 -20 -4
-105 -30 -160 -50 -25 -9 -94 -41 -155 -71 -328 -164 -572 -434 -613 -679 -12
-72 -5 -190 13 -250 25 -79 83 -137 170 -171 11 -4 25 -8 30 -9 6 -1 28 -5 50
-9 53 -11 105 -14 110 -5 3 3 -2 20 -10 36 -8 17 -19 51 -24 77 -9 48 -7 263
3 306 3 14 11 49 18 78 6 29 15 55 20 58 4 3 8 12 8 20 0 24 39 104 81 165 44
66 161 185 190 194 10 4 19 10 19 14 0 9 149 85 155 79 2 -2 -3 -30 -11 -62
-8 -32 -17 -70 -19 -85 -2 -14 -10 -55 -19 -91 -8 -36 -17 -76 -20 -90 -2 -14
-16 -79 -31 -145 -14 -66 -28 -136 -31 -155 -3 -19 -10 -53 -16 -75 -15 -52
-15 -52 -23 -105 -4 -24 -8 -47 -10 -51 -4 -6 -16 -62 -19 -89 -1 -9 -5 -21
-10 -28 -4 -6 -5 -12 -2 -12 2 0 1 -14 -4 -32 -5 -17 -12 -49 -16 -72 -3 -22
-7 -43 -9 -47 -4 -5 -11 -40 -20 -99 -3 -14 -14 -63 -25 -110 -11 -47 -23 -99
-25 -117 -3 -18 -12 -63 -21 -100 -9 -37 -18 -79 -20 -92 -3 -12 -11 -51 -19
-85 -8 -33 -16 -74 -19 -91 -3 -16 -26 -124 -51 -240 -25 -115 -48 -223 -51
-240 -2 -16 -7 -38 -10 -47 -3 -9 -6 -25 -8 -35 -2 -10 -5 -22 -6 -28 -8 -34
-3 -35 260 -35 253 0 260 1 261 20 1 11 2 23 3 28 16 67 37 163 41 185 3 15 7
37 10 50 3 12 7 31 9 42 2 11 18 88 36 170 17 83 33 159 36 170 2 11 6 31 10
45 3 14 8 39 11 55 2 17 16 77 29 135 14 58 27 121 30 140 2 19 7 43 10 52 3
9 7 25 9 35 34 171 48 229 55 237 25 26 240 13 240 -14 0 -4 8 -10 18 -12 10
-3 29 -27 43 -54 20 -42 24 -65 25 -151 1 -57 -3 -124 -8 -150 -5 -27 -12 -59
-14 -73 -6 -27 -22 -95 -29 -120 -4 -15 -74 -273 -81 -300 -33 -126 -47 -209
-48 -295 -1 -92 1 -104 26 -147 22 -36 41 -53 85 -75 51 -24 71 -28 158 -30
86 -2 134 4 270 31 11 3 20 5 20 6 0 1 13 4 29 6 32 3 47 15 28 21 -22 8 -72
64 -94 107 -18 34 -22 57 -22 136 0 55 8 122 17 160 10 36 19 74 21 85 2 11
27 111 56 222 28 111 53 211 55 221 2 11 7 37 11 58 4 22 7 91 7 154 0 151
-21 210 -105 294 -32 32 -62 56 -65 52 -3 -3 -11 -2 -17 3 -11 9 -73 27 -126
38 -14 3 -76 6 -137 6 -62 0 -113 3 -113 6 0 3 17 24 38 46 20 22 62 69 92
105 30 36 67 78 82 95 14 16 35 39 45 51 102 118 130 150 143 164 8 9 39 45
69 81 30 35 62 71 70 80 9 9 27 29 40 45 13 16 52 60 85 99 34 38 72 83 86 99
14 16 30 34 35 40 13 14 132 151 165 190 14 16 31 35 38 42 11 12 6 14 -35 14
-305 3 -353 0 -353 -20 0 -5 -7 -16 -16 -24 -13 -14 -161 -210 -294 -391 -24
-33 -49 -65 -54 -72 -6 -6 -36 -46 -66 -88 -30 -43 -67 -91 -82 -109 -15 -17
-28 -34 -28 -38 0 -4 -6 -13 -13 -20 -7 -7 -24 -29 -37 -48 -13 -19 -28 -39
-32 -45 -17 -21 -64 -83 -83 -109 -11 -15 -38 -51 -59 -79 l-39 -52 7 35 c10
50 14 68 28 130 15 69 13 59 21 100 4 19 10 46 13 60 3 14 7 36 10 49 3 13 12
54 20 90 8 36 16 77 19 91 5 29 7 37 35 166 27 124 27 123 35 170 8 45 13 69
15 69 3 0 21 100 23 130 2 19 -4 20 -128 21 -71 0 -150 -3 -175 -7z"/>
<path d="M2960 4020 c-12 -3 -21 -8 -21 -12 1 -5 1 -9 0 -10 0 -2 -2 -14 -4
-28 -3 -24 -9 -51 -18 -95 -5 -21 -33 -150 -48 -220 -5 -22 -10 -50 -13 -61
-2 -12 -7 -38 -10 -59 -4 -20 -8 -41 -11 -45 -2 -3 -7 -22 -10 -41 -3 -19 -15
-76 -26 -128 -11 -51 -22 -103 -25 -115 -7 -39 -27 -135 -39 -191 -3 -11 -7
-29 -9 -40 -2 -11 -9 -42 -16 -69 -6 -27 -12 -61 -15 -75 -2 -14 -7 -48 -11
-76 -13 -81 -8 -235 9 -297 37 -131 117 -215 242 -253 44 -13 192 -15 250 -3
95 19 178 64 261 140 l45 41 -6 -32 c-8 -48 -33 -153 -37 -155 -2 -2 -32 -13
-68 -26 -225 -81 -387 -187 -459 -299 -62 -96 -77 -267 -31 -364 61 -128 214
-207 391 -201 179 6 321 62 437 173 35 34 102 133 102 151 0 5 5 10 12 10 6 0
8 3 5 6 -3 4 -1 16 5 28 7 11 13 23 13 26 1 3 7 18 13 33 7 16 12 34 12 41 0
6 5 17 12 24 7 7 9 12 6 12 -4 0 -2 15 3 33 6 17 12 41 13 52 3 17 18 90 21
105 1 3 5 16 8 30 4 14 9 36 11 50 16 101 15 98 70 116 158 52 296 145 401
269 24 29 26 28 25 -10 0 -3 13 -31 29 -63 51 -100 119 -157 224 -187 92 -26
255 -14 329 26 10 5 23 9 28 9 37 0 175 115 235 195 17 22 32 42 36 45 3 3 9
14 13 24 9 26 19 11 34 -47 29 -114 85 -187 180 -234 52 -26 67 -28 167 -28
102 0 115 3 175 31 126 60 198 158 215 295 4 36 3 40 -12 34 -28 -11 -115 -16
-155 -9 -66 10 -95 55 -93 139 2 67 15 144 26 151 5 3 7 9 4 14 -3 5 1 38 9
74 15 61 19 83 32 144 3 15 14 68 25 117 11 50 22 101 25 115 4 23 8 44 18 95
3 11 10 43 16 70 7 28 14 64 17 80 2 17 9 48 15 70 6 22 12 54 15 70 2 17 9
48 15 70 6 22 12 52 14 66 2 14 12 64 23 110 11 46 18 86 15 88 -3 3 -442 5
-508 2 -11 -1 -17 -4 -13 -7 3 -3 1 -17 -4 -31 -5 -14 -12 -42 -15 -62 -3 -20
-7 -44 -10 -53 -3 -9 -7 -27 -9 -40 -3 -13 -7 -34 -10 -48 -3 -14 -7 -34 -9
-45 -3 -11 -12 -54 -21 -95 -9 -41 -18 -86 -20 -100 -2 -14 -4 -25 -5 -25 -2
0 -5 -13 -23 -100 -8 -38 -18 -81 -21 -95 -8 -36 -16 -72 -21 -100 -2 -14 -9
-45 -15 -70 -5 -25 -12 -56 -14 -70 -17 -99 -63 -274 -84 -320 -14 -30 -24
-58 -24 -62 1 -5 -1 -8 -6 -8 -4 0 -16 -15 -25 -32 -25 -45 -90 -95 -139 -109
-49 -13 -111 -4 -131 19 -42 47 -43 153 -4 327 14 61 28 128 33 150 4 22 8 42
9 45 1 3 5 25 10 50 10 53 12 59 14 63 2 1 4 13 7 27 2 14 13 68 24 120 11 52
22 104 25 115 2 11 18 88 35 170 18 83 33 157 35 165 2 8 6 26 9 40 3 14 8 36
10 50 3 14 8 36 11 50 3 14 8 39 10 55 l3 30 -258 0 -259 0 -12 -50 c-6 -27
-13 -63 -16 -80 -2 -16 -9 -48 -15 -70 -5 -22 -11 -47 -13 -55 -1 -8 -6 -33
-10 -55 -5 -22 -9 -46 -11 -54 -1 -7 -7 -34 -13 -60 -6 -25 -13 -57 -16 -71
-2 -14 -14 -68 -25 -120 -11 -52 -27 -131 -35 -175 -9 -44 -20 -93 -25 -110
-5 -16 -11 -43 -14 -60 -2 -16 -12 -64 -21 -105 -9 -41 -18 -84 -20 -95 -4
-19 -20 -59 -51 -133 -8 -18 -14 -39 -14 -47 0 -8 -3 -15 -7 -15 -5 0 -21 -24
-36 -54 -58 -110 -162 -198 -310 -260 l-38 -15 5 27 c8 45 42 203 52 247 3 11
7 31 10 45 3 14 23 111 46 215 22 105 41 197 43 205 1 8 5 29 8 45 16 66 19
81 22 102 2 11 6 30 10 42 3 11 9 33 11 48 3 16 10 48 16 73 5 25 12 59 15 75
2 17 10 55 18 85 7 30 16 73 21 95 4 22 8 42 9 45 1 3 7 30 13 60 7 30 15 66
18 80 3 14 8 41 11 60 3 19 11 52 17 75 7 22 11 45 9 50 -2 8 -330 12 -494 6
-24 -1 -28 -6 -39 -63 -7 -35 -14 -67 -16 -73 -3 -14 -44 -204 -50 -235 -6
-29 -43 -202 -51 -234 -2 -11 -6 -30 -8 -41 -2 -11 -6 -30 -9 -42 -12 -49 -21
-92 -31 -148 -2 -11 -8 -38 -14 -60 -5 -22 -12 -51 -15 -65 -51 -262 -81 -340
-171 -449 -31 -37 -110 -70 -161 -67 -79 5 -107 55 -100 177 2 41 6 83 9 94
10 38 37 160 41 185 2 14 16 78 30 143 14 65 28 131 31 145 3 15 7 38 11 52 3
14 7 34 9 45 2 11 13 61 23 110 11 50 23 104 26 120 3 17 15 73 26 125 12 52
24 106 26 120 2 14 10 54 17 90 8 36 13 67 11 69 -5 6 -479 7 -504 1z m446
-2047 c-7 -44 -14 -78 -16 -78 -1 0 -3 -10 -6 -23 -15 -81 -64 -186 -110 -238
-78 -86 -214 -39 -214 75 0 87 86 179 235 252 55 27 104 49 108 49 5 0 6 -17
3 -37z"/>
</g>
</svg>
